<svg width="262" height="28" viewBox="0 0 262 38" fill="none" xmlns="http://www.w3.org/2000/svg">
<path d="M0.16 2.64H20.08V8.4H8.8V13.392H18.304V18.576H8.8V24.144H20.032V30H0.16V2.64ZM37.5198 7.92H46.1118L39.3918 30H28.0158L21.2957 7.92H29.8878L33.4878 24.864H33.9678L37.5198 7.92ZM61.4069 24.24C62.2069 24.24 63.6949 24.16 65.8709 24C66.1589 24 66.6869 23.968 67.4549 23.904L68.1749 28.848C65.7109 30 62.5109 30.576 58.5749 30.576C54.8949 30.576 52.0629 29.648 50.0789 27.792C48.1269 25.936 47.1509 23.136 47.1509 19.392C47.1509 17.472 47.3909 15.616 47.8709 13.824C48.3829 12.032 48.9589 10.784 49.5989 10.08C50.2709 9.376 51.5189 8.768 53.3429 8.256C55.1669 7.744 56.9749 7.488 58.7669 7.488C61.6469 7.488 63.8069 8 65.2469 9.024C66.6869 10.048 67.6309 11.472 68.0789 13.296C68.5269 15.088 68.7509 17.504 68.7509 20.544C66.5749 20.672 64.4469 20.736 62.3669 20.736H55.5509C55.5509 21.76 55.7589 22.528 56.1749 23.04C56.6229 23.552 57.2469 23.888 58.0469 24.048C58.8469 24.176 59.9669 24.24 61.4069 24.24ZM56.0309 13.2C55.8389 13.296 55.6949 13.712 55.5989 14.448C55.5029 15.184 55.4389 16.016 55.4069 16.944H57.9029C59.4069 16.944 60.4949 16.928 61.1669 16.896C61.1669 15.36 60.9429 14.272 60.4949 13.632C60.0789 12.992 59.3429 12.672 58.2869 12.672C57.4229 12.672 56.6709 12.848 56.0309 13.2ZM92.9999 9.312C93.2879 9.664 93.4959 10.544 93.6239 11.952C93.7839 13.36 93.8639 15.504 93.8639 18.384V30H85.6559V18.48V16.512C85.6559 15.488 85.5759 14.848 85.4159 14.592C85.1599 14.272 84.5679 14.112 83.6399 14.112C83.1919 14.112 82.8559 14.128 82.6319 14.16C81.7359 14.192 80.8079 14.4 79.8479 14.784V30H71.6399V7.92H78.3119L79.2239 11.616C81.5279 8.832 84.2799 7.44 87.4799 7.44C88.6319 7.44 89.7039 7.6 90.6959 7.92C91.7199 8.24 92.4879 8.704 92.9999 9.312ZM107.832 20.928C107.832 21.504 107.848 22.112 107.88 22.752C107.912 23.36 108.008 23.744 108.168 23.904C108.392 24.128 109.176 24.24 110.52 24.24L112.152 24.192C112.44 25.728 112.584 27.504 112.584 29.52C111.976 29.744 111.08 29.952 109.896 30.144C108.744 30.336 107.64 30.432 106.584 30.432C104.376 30.432 102.664 29.952 101.448 28.992C100.264 28 99.6715 26.48 99.6715 24.432V12.624H96.0715V8.256L99.6715 7.92L101.832 2.64L107.832 2.304V7.92H112.92V12.624H107.832V20.928Z" fill="white"/>
<path d="M130.897 10.032C130.897 10.704 131.233 11.232 131.905 11.616C132.609 12 133.697 12.416 135.169 12.864C136.929 13.44 138.369 14 139.489 14.544C140.641 15.088 141.633 15.936 142.465 17.088C143.329 18.24 143.761 19.744 143.761 21.6C143.761 27.552 139.889 30.528 132.145 30.528C130.865 30.528 129.297 30.416 127.441 30.192C125.617 29.968 123.953 29.68 122.449 29.328C122.513 28.656 122.641 27.68 122.833 26.4C123.057 25.088 123.265 24.112 123.457 23.472C124.577 23.632 126.257 23.824 128.497 24.048C130.769 24.272 132.481 24.384 133.633 24.384C134.305 24.384 134.705 24.336 134.833 24.24C135.025 24.112 135.169 23.904 135.265 23.616C135.393 23.296 135.457 23.024 135.457 22.8C135.457 22.16 135.153 21.68 134.545 21.36C133.937 21.008 132.897 20.592 131.425 20.112C129.665 19.568 128.209 19.008 127.057 18.432C125.905 17.856 124.897 16.96 124.033 15.744C123.169 14.528 122.737 12.928 122.737 10.944C122.737 9.536 123.057 8.16 123.697 6.816C124.337 5.44 124.993 4.512 125.665 4.032C126.177 3.68 127.233 3.344 128.833 3.024C130.433 2.704 131.937 2.544 133.345 2.544C136.929 2.544 139.857 2.88 142.129 3.552C142.097 4.192 141.985 5.072 141.793 6.192C141.633 7.312 141.457 8.336 141.265 9.264L140.161 9.216C136.001 8.928 133.345 8.784 132.193 8.784C131.713 8.784 131.441 8.8 131.377 8.832C131.249 8.896 131.137 9.04 131.041 9.264C130.945 9.488 130.897 9.744 130.897 10.032ZM162.464 7.44C164.768 7.44 166.592 8.208 167.936 9.744C169.312 11.248 170 13.888 170 17.664C170 20.48 169.728 22.784 169.184 24.576C168.64 26.336 168.016 27.504 167.312 28.08C166.608 28.656 165.376 29.12 163.616 29.472C161.888 29.824 160.096 30 158.24 30C157.696 30 156.784 29.968 155.504 29.904V36.72L147.296 37.056V7.92H154.016L154.832 11.328C155.664 10.144 156.72 9.2 158 8.496C159.312 7.792 160.8 7.44 162.464 7.44ZM160.544 24.144C160.896 23.888 161.152 23.168 161.312 21.984C161.472 20.768 161.552 19.616 161.552 18.528C161.552 16.736 161.328 15.408 160.88 14.544C160.432 13.68 159.536 13.248 158.192 13.248C157.232 13.248 156.336 13.344 155.504 13.536V24.192L156.848 24.336C157.264 24.368 157.856 24.384 158.624 24.384C159.712 24.384 160.352 24.304 160.544 24.144ZM194.578 9.312C194.866 9.664 195.074 10.544 195.202 11.952C195.362 13.36 195.442 15.504 195.442 18.384V30H187.234V18.48C187.234 18.352 187.234 17.728 187.234 16.608C187.234 15.456 187.154 14.752 186.994 14.496C186.898 14.368 186.658 14.272 186.274 14.208C185.922 14.144 185.506 14.112 185.026 14.112L184.21 14.16C183.314 14.192 182.386 14.4 181.426 14.784V30H173.218V1.2L181.426 0.863997V6.48C181.426 8.784 181.346 10.32 181.186 11.088L181.234 11.136C183.41 8.672 186.018 7.44 189.058 7.44C190.21 7.44 191.282 7.6 192.274 7.92C193.298 8.24 194.066 8.704 194.578 9.312ZM212.626 24.24C213.426 24.24 214.914 24.16 217.09 24C217.378 24 217.906 23.968 218.674 23.904L219.394 28.848C216.93 30 213.73 30.576 209.794 30.576C206.114 30.576 203.282 29.648 201.298 27.792C199.346 25.936 198.37 23.136 198.37 19.392C198.37 17.472 198.61 15.616 199.09 13.824C199.602 12.032 200.178 10.784 200.818 10.08C201.49 9.376 202.738 8.768 204.562 8.256C206.386 7.744 208.194 7.488 209.986 7.488C212.866 7.488 215.026 8 216.466 9.024C217.906 10.048 218.85 11.472 219.298 13.296C219.746 15.088 219.97 17.504 219.97 20.544C217.794 20.672 215.666 20.736 213.586 20.736H206.77C206.77 21.76 206.978 22.528 207.394 23.04C207.842 23.552 208.466 23.888 209.266 24.048C210.066 24.176 211.186 24.24 212.626 24.24ZM207.25 13.2C207.058 13.296 206.914 13.712 206.818 14.448C206.722 15.184 206.658 16.016 206.626 16.944H209.122C210.626 16.944 211.714 16.928 212.386 16.896C212.386 15.36 212.162 14.272 211.714 13.632C211.298 12.992 210.562 12.672 209.506 12.672C208.642 12.672 207.89 12.848 207.25 13.2ZM236.539 7.44C236.955 7.44 237.387 7.488 237.835 7.584C238.315 7.68 238.667 7.792 238.891 7.92C238.891 8.624 238.811 9.792 238.651 11.424C238.491 13.024 238.347 14.16 238.219 14.832C237.899 14.8 237.307 14.784 236.443 14.784C234.427 14.784 232.635 14.896 231.067 15.12V30H222.859V7.92H229.723L230.683 11.472H230.731C231.659 10.256 232.651 9.28 233.707 8.544C234.763 7.808 235.707 7.44 236.539 7.44ZM254.438 24.24C255.238 24.24 256.726 24.16 258.902 24C259.19 24 259.718 23.968 260.486 23.904L261.206 28.848C258.742 30 255.542 30.576 251.606 30.576C247.926 30.576 245.094 29.648 243.11 27.792C241.158 25.936 240.182 23.136 240.182 19.392C240.182 17.472 240.422 15.616 240.902 13.824C241.414 12.032 241.99 10.784 242.63 10.08C243.302 9.376 244.55 8.768 246.374 8.256C248.198 7.744 250.006 7.488 251.798 7.488C254.678 7.488 256.838 8 258.278 9.024C259.718 10.048 260.662 11.472 261.11 13.296C261.558 15.088 261.782 17.504 261.782 20.544C259.606 20.672 257.478 20.736 255.398 20.736H248.582C248.582 21.76 248.79 22.528 249.206 23.04C249.654 23.552 250.278 23.888 251.078 24.048C251.878 24.176 252.998 24.24 254.438 24.24ZM249.062 13.2C248.87 13.296 248.726 13.712 248.63 14.448C248.534 15.184 248.47 16.016 248.438 16.944H250.934C252.438 16.944 253.526 16.928 254.198 16.896C254.198 15.36 253.974 14.272 253.526 13.632C253.11 12.992 252.374 12.672 251.318 12.672C250.454 12.672 249.702 12.848 249.062 13.2Z" fill="#FF47E0"/>
</svg>